<?xml version="1.0" encoding="utf-8"?>
<!-- Uploaded to: SVG Repo, www.svgrepo.com, Generator: SVG Repo Mixer Tools -->
<svg version="1.2" baseProfile="tiny" id="Layer_1" xmlns="http://www.w3.org/2000/svg" xmlns:xlink="http://www.w3.org/1999/xlink"
	  viewBox="0 0 256 256" xml:space="preserve">
<circle id="XMLID_1_" cx="52.3" cy="202" r="32.5"/>
<g id="XMLID_9_">
	<g id="XMLID_11_">
		<path id="XMLID_83_" fill="none" stroke="#000000" stroke-width="5" stroke-miterlimit="10" d="M92.1,102.5"/>
	</g>
</g>
<path id="XMLID_51_" d="M190.3,59.6l5.2,5.2l-92.9,92l-5.2-5.2L190.3,59.6z M170.1,30.1c-1.7,1.7-4.5,1.7-6.3,0l0,0
	c-1.7-1.7-1.7-4.5,0-6.3l0,0c1.7-1.7,4.5-1.7,6.3,0l0,0C171.9,25.6,171.9,28.4,170.1,30.1z M157.6,42.6c-1.7,1.7-4.5,1.7-6.3,0l0,0
	c-1.7-1.7-1.7-4.5,0-6.3l0,0c1.7-1.7,4.5-1.7,6.3,0l0,0C159.3,38.1,159.3,40.9,157.6,42.6z M145.1,55.1c-1.7,1.7-4.5,1.7-6.3,0l0,0
	c-1.7-1.7-1.7-4.5,0-6.3l0,0c1.7-1.7,4.5-1.7,6.3,0l0,0C146.8,50.6,146.8,53.4,145.1,55.1z M230.6,90.6c-1.7,1.7-4.5,1.7-6.3,0l0,0
	c-1.7-1.7-1.7-4.5,0-6.3l0,0c1.7-1.7,4.5-1.7,6.3,0l0,0C232.3,86.1,232.3,88.9,230.6,90.6z M218.1,103.1c-1.7,1.7-4.5,1.7-6.3,0l0,0
	c-1.7-1.7-1.7-4.5,0-6.3l0,0c1.7-1.7,4.5-1.7,6.3,0l0,0C219.8,98.6,219.8,101.4,218.1,103.1z M205.5,115.6c-1.7,1.7-4.5,1.7-6.3,0
	l0,0c-1.7-1.7-1.7-4.5,0-6.3l0,0c1.7-1.7,4.5-1.7,6.3,0l0,0C207.3,111.1,207.3,113.9,205.5,115.6z M221.9,3.9L221.9,3.9
	c-1.7-1.7-4.5-1.7-6.3,0l0,0c-1.7,1.7-1.7,4.5,0,6.3l0,0c1.7,1.7,4.5,1.7,6.3,0S223.6,5.7,221.9,3.9z M209.4,16.4L209.4,16.4
	c-1.7-1.7-4.5-1.7-6.3,0l0,0c-1.7,1.7-1.7,4.5,0,6.3l0,0c1.7,1.7,4.5,1.7,6.3,0C211.1,21,211.1,18.2,209.4,16.4z M196.8,28.9
	L196.8,28.9c-1.7-1.7-4.5-1.7-6.3,0l0,0c-1.7,1.7-1.7,4.5,0,6.3l0,0c1.7,1.7,4.5,1.7,6.3,0C198.5,33.5,198.6,30.7,196.8,28.9z
	 M184.3,41.4L184.3,41.4c-1.7-1.7-4.5-1.7-6.3,0l0,0c-1.7,1.7-1.7,4.5,0,6.3l0,0c1.7,1.7,4.5,1.7,6.3,0C186,46,186,43.2,184.3,41.4z
	 M171.8,53.9L171.8,53.9c-1.7-1.7-4.5-1.7-6.3,0l0,0c-1.7,1.7-1.7,4.5,0,6.3l0,0c1.7,1.7,4.5,1.7,6.3,0S173.5,55.7,171.8,53.9z
	 M159.2,66.4L159.2,66.4c-1.7-1.7-4.5-1.7-6.3,0l0,0c-1.7,1.7-1.7,4.5,0,6.3l0,0c1.7,1.7,4.5,1.7,6.3,0S161,68.2,159.2,66.4z
	 M145.9,75.9l5.2,5.2l-40.9,40.7l-5.2-5.2L145.9,75.9z M251.7,33.8L251.7,33.8c-1.7-1.7-4.5-1.7-6.3,0l0,0c-1.7,1.7-1.7,4.5,0,6.3
	l0,0c1.7,1.7,4.5,1.7,6.3,0C253.4,38.3,253.4,35.5,251.7,33.8z M239.2,46.3L239.2,46.3c-1.7-1.7-4.5-1.7-6.3,0l0,0
	c-1.7,1.7-1.7,4.5,0,6.3l0,0c1.7,1.7,4.5,1.7,6.3,0C240.9,50.9,240.9,48,239.2,46.3z M226.6,58.8L226.6,58.8c-1.7-1.7-4.5-1.7-6.3,0
	l0,0c-1.7,1.7-1.7,4.5,0,6.3l0,0c1.7,1.7,4.5,1.7,6.3,0C228.4,63.4,228.4,60.6,226.6,58.8z M214.1,71.3L214.1,71.3
	c-1.7-1.7-4.5-1.7-6.3,0l0,0c-1.7,1.7-1.7,4.5,0,6.3l0,0c1.7,1.7,4.5,1.7,6.3,0C215.8,75.9,215.9,73.1,214.1,71.3z M201.6,83.8
	L201.6,83.8c-1.7-1.7-4.5-1.7-6.3,0l0,0c-1.7,1.7-1.7,4.5,0,6.3l0,0c1.7,1.7,4.5,1.7,6.3,0S203.3,85.6,201.6,83.8z M189.1,96.3
	L189.1,96.3c-1.7-1.7-4.5-1.7-6.3,0l0,0c-1.7,1.7-1.7,4.5,0,6.3l0,0c1.7,1.7,4.5,1.7,6.3,0S190.8,98.1,189.1,96.3z M175.9,105.9
	l5.2,5.3l-42.5,41.3l-5.2-5.3L175.9,105.9z"/>
<path id="XMLID_3_" d="M75.5,232.3c-14.8,14.8-38.8,14.6-53.6-0.2C7,217.2,6.8,193.1,21.6,178.4l0,0l115.8-116l-6.6-6.6L15.1,171.9
	l0,0c-18.5,18.5-18.3,48.4,0.2,66.8c18.4,18.4,48.3,18.5,66.8,0.1l0,0L198,123l-6.6-6.6L75.5,232.3L75.5,232.3z"/>
</svg>